<svg width="16" height="16" fill="none" xmlns="http://www.w3.org/2000/svg"><g clip-path="url(#clip0)"><path d="M14.502 1.924a5.12 5.12 0 00-7.234 0l-6.2 6.2a3.658 3.658 0 000 5.167 3.641 3.641 0 002.584 1.068c.935 0 1.87-.356 2.583-1.068l5.683-5.684c.415-.414.643-.964.643-1.55a2.194 2.194 0 00-3.742-1.55L5.101 8.224a.73.73 0 001.033 1.033l3.717-3.716a.731.731 0 011.033 1.033l-5.683 5.683a2.195 2.195 0 01-3.1 0 2.195 2.195 0 010-3.1l6.2-6.2a3.657 3.657 0 015.167 0 3.63 3.63 0 011.07 2.584 3.63 3.63 0 01-1.07 2.583l-6.2 6.2a.73.73 0 001.033 1.034l6.2-6.2A5.082 5.082 0 0016 5.54a5.08 5.08 0 00-1.498-3.617z" fill="#fff"/></g><defs><clipPath id="clip0"><path fill="#fff" d="M0 0h16v16H0z"/></clipPath></defs></svg>