<svg width="48" height="48" fill="none" xmlns="http://www.w3.org/2000/svg"><g filter="url(#filter0_b)"><path fill-rule="evenodd" clip-rule="evenodd" d="M15.428 0C9.698 0 0 1.203 0 5.714v28.572h3.429H0C0 38.504 8.311 40 15.428 40c.577 0 1.15-.011 1.715-.034v2.32c0 4.218 8.311 5.714 15.429 5.714C39.689 48 48 46.504 48 42.286V30.857c0-4.51-9.698-5.714-15.428-5.714-.54 0-1.116.01-1.715.034V5.715C30.857 1.202 21.16 0 15.43 0zm5.143 42.286v-.016.016zm0-.124c.57.754 4.603 2.41 12 2.41s11.429-1.656 12-2.41v-1.737c-3.077 1.327-7.751 1.86-12 1.86-4.248 0-8.922-.533-12-1.86v1.737zm0-5.59v-.017.016zm0-.124c.57.753 4.603 2.409 12 2.409s11.429-1.655 12-2.409v-1.776c-3.346 1.435-8.438 1.9-12 1.9-3.56 0-8.654-.465-12-1.9v1.776zm-3.428-2.2c-.553.023-1.116.038-1.715.038-4.248 0-8.922-.534-12-1.86v1.737c.572.753 4.604 2.409 12 2.409.578 0 1.15-.013 1.715-.038V34.25zm1.093-5.755c-.942.053-1.885.078-2.808.078-4.248 0-8.922-.533-12-1.86v1.737c.572.754 4.604 2.41 12 2.41a41.4 41.4 0 001.715-.04c.012-.903.413-1.672 1.093-2.325zM3.429 11.306V9.53c3.346 1.434 8.439 1.899 12 1.899 3.56 0 8.653-.465 12-1.9v1.777c-.572.753-4.604 2.408-12 2.408-7.397 0-11.43-1.655-12-2.408zm0 5.714v-1.737c3.077 1.327 7.751 1.86 12 1.86 4.248 0 8.922-.533 12-1.86v1.737c-.572.753-4.604 2.409-12 2.409-7.397 0-11.43-1.656-12-2.41zm0 5.714v-1.737c3.077 1.327 7.751 1.86 12 1.86 4.248 0 8.922-.533 12-1.86v1.737c-.572.753-4.604 2.409-12 2.409-7.397 0-11.43-1.656-12-2.409zM15.429 8C8.459 8 4.464 6.517 3.554 5.714c.91-.802 4.905-2.285 11.873-2.285 6.97 0 10.964 1.483 11.874 2.285C26.392 6.517 22.398 8 15.43 8zm5.269 22.857c.91.803 4.904 2.286 11.874 2.286 6.969 0 10.963-1.483 11.873-2.286-.91-.802-4.905-2.286-11.873-2.286-6.969 0-10.964 1.484-11.874 2.286z" fill="url(#paint0_linear)"/></g><defs><linearGradient id="paint0_linear" x1="0" y1="0" x2="57.817" y2="26.896" gradientUnits="userSpaceOnUse"><stop stop-color="#299EF3" stop-opacity=".7"/><stop offset=".474" stop-color="#4D7CF5" stop-opacity=".69"/><stop offset="1" stop-color="#8B1EF8" stop-opacity=".3"/></linearGradient><filter id="filter0_b" x="-20" y="-20" width="88" height="88" filterUnits="userSpaceOnUse" color-interpolation-filters="sRGB"><feFlood flood-opacity="0" result="BackgroundImageFix"/><feGaussianBlur in="BackgroundImage" stdDeviation="10"/><feComposite in2="SourceAlpha" operator="in" result="effect1_backgroundBlur"/><feBlend in="SourceGraphic" in2="effect1_backgroundBlur" result="shape"/></filter></defs></svg>