<svg width="46" height="48" fill="none" xmlns="http://www.w3.org/2000/svg"><g filter="url(#filter0_b)"><path fill-rule="evenodd" clip-rule="evenodd" d="M7.885.131A1.742 1.742 0 019.219 3.35c-.19.08-4.192 1.844-5.551 6.752a1.743 1.743 0 01-2.144 1.212A1.742 1.742 0 01.311 9.17C2.143 2.563 7.651.227 7.885.131zm30.23 0c.233.097 5.742 2.432 7.574 9.039a1.741 1.741 0 11-3.356.93c-1.382-4.983-5.502-6.731-5.544-6.748a1.742 1.742 0 011.326-3.22zm3.73 44.924l-3.948-4.122a1.74 1.74 0 10-2.515 2.409l3.947 4.121a1.738 1.738 0 002.462.054 1.742 1.742 0 00.053-2.462zM8.102 40.933a1.742 1.742 0 012.515 2.409L6.67 47.463c-.342.357-.8.537-1.257.537a1.742 1.742 0 01-1.257-2.946l3.946-4.12zM29.501 21.94h-5.398v-8.3a1.741 1.741 0 10-3.482 0v10.04c0 .962.78 1.742 1.741 1.742h7.139a1.74 1.74 0 100-3.483zm-26.873.813C2.628 11.519 11.767 2.38 23 2.38s20.372 9.139 20.372 20.372S34.233 43.124 23 43.124 2.628 33.985 2.628 22.752zm3.482 0c0 9.314 7.577 16.89 16.89 16.89s16.89-7.576 16.89-16.89c0-9.313-7.577-16.89-16.89-16.89S6.11 13.44 6.11 22.753z" fill="url(#paint0_linear)"/></g><defs><linearGradient id="paint0_linear" x1=".248" y1="0" x2="56.065" y2="24.616" gradientUnits="userSpaceOnUse"><stop stop-color="#299EF3" stop-opacity=".7"/><stop offset=".474" stop-color="#4D7CF5" stop-opacity=".69"/><stop offset="1" stop-color="#8B1EF8" stop-opacity=".3"/></linearGradient><filter id="filter0_b" x="-19.752" y="-20" width="85.505" height="88" filterUnits="userSpaceOnUse" color-interpolation-filters="sRGB"><feFlood flood-opacity="0" result="BackgroundImageFix"/><feGaussianBlur in="BackgroundImage" stdDeviation="10"/><feComposite in2="SourceAlpha" operator="in" result="effect1_backgroundBlur"/><feBlend in="SourceGraphic" in2="effect1_backgroundBlur" result="shape"/></filter></defs></svg>