<svg width="44" height="48" fill="none" xmlns="http://www.w3.org/2000/svg"><g filter="url(#filter0_b)"><path fill-rule="evenodd" clip-rule="evenodd" d="M21.204 1.532a1.532 1.532 0 113.064 0v6.383a1.532 1.532 0 11-3.064 0V1.532zm21.8 26.652a6.798 6.798 0 00-6.531-4.95h-9.039v-5.77a5.624 5.624 0 00-5.617-5.617h-2.4c-.846 0-1.532.686-1.532 1.532v5.464c0 2.505-.981 5.056-2.767 7.189l-.807.82v-1.116c0-.846-.686-1.532-1.532-1.532H2.31c-.847 0-1.532.686-1.532 1.532v20.732c0 .846.685 1.532 1.532 1.532h10.468c.845 0 1.532-.686 1.532-1.532v-.46h20.834c3.204 0 5.3-1.506 5.74-4.09l2.187-10.936c.222-.964.195-1.945-.069-2.798zM14.31 42.944V31.219l3.032-3.079c.027-.028.054-.056.079-.087 2.275-2.694 3.527-5.964 3.527-9.21v-3.931h.868a2.556 2.556 0 012.554 2.553v7.302c0 .846.685 1.532 1.532 1.532h10.57a3.738 3.738 0 013.59 2.749c.115.37.123.814.014 1.29L37.873 41.36c-.067.392-.27 1.585-2.728 1.585H14.31zm-3.064 1.992H3.842V27.268h7.405v17.668zm2.887-37.293L8.62 3.66a1.532 1.532 0 00-1.793 2.484l5.515 3.983a1.529 1.529 0 002.139-.345 1.532 1.532 0 00-.346-2.139zm22.201-3.979A1.531 1.531 0 1138.14 6.14l-5.463 3.983a1.528 1.528 0 01-2.14-.335 1.531 1.531 0 01.335-2.14l5.463-3.984z" fill="url(#paint0_linear)"/></g><defs><linearGradient id="paint0_linear" x1=".779" y1="0" x2="53.966" y2="21.878" gradientUnits="userSpaceOnUse"><stop stop-color="#299EF3" stop-opacity=".7"/><stop offset=".474" stop-color="#4D7CF5" stop-opacity=".69"/><stop offset="1" stop-color="#8B1EF8" stop-opacity=".3"/></linearGradient><filter id="filter0_b" x="-19.221" y="-20" width="82.443" height="88" filterUnits="userSpaceOnUse" color-interpolation-filters="sRGB"><feFlood flood-opacity="0" result="BackgroundImageFix"/><feGaussianBlur in="BackgroundImage" stdDeviation="10"/><feComposite in2="SourceAlpha" operator="in" result="effect1_backgroundBlur"/><feBlend in="SourceGraphic" in2="effect1_backgroundBlur" result="shape"/></filter></defs></svg>