<svg width="46" height="48" fill="none" xmlns="http://www.w3.org/2000/svg"><g filter="url(#filter0_b)"><path fill-rule="evenodd" clip-rule="evenodd" d="M33.304.45a1.735 1.735 0 00-2.45.119l-7.784 8.57-6.938-8.5a1.735 1.735 0 00-2.688 2.193l5.9 7.231H1.835C.876 10.063.1 10.84.1 11.798v10.063c0 .958.777 1.735 1.735 1.735H3.28v22.67c0 .958.777 1.734 1.735 1.734h35.97c.959 0 1.736-.776 1.736-1.735v-22.67h1.445c.959 0 1.735-.776 1.735-1.734V11.798c0-.958-.776-1.735-1.735-1.735H26.92l6.503-7.162a1.735 1.735 0 00-.118-2.45zM3.569 13.533h17.696v6.593H3.57v-6.593zm3.18 10.063h14.516V44.53H6.75V23.596zm17.987 0V44.53H39.25V23.596H24.736zm0-10.063v6.593H42.43v-6.593H24.736z" fill="url(#paint0_linear)"/></g><defs><linearGradient id="paint0_linear" x1=".099" y1="0" x2="56.162" y2="24.886" gradientUnits="userSpaceOnUse"><stop stop-color="#299EF3" stop-opacity=".7"/><stop offset=".474" stop-color="#4D7CF5" stop-opacity=".69"/><stop offset="1" stop-color="#8B1EF8" stop-opacity=".3"/></linearGradient><filter id="filter0_b" x="-19.901" y="-20" width="85.802" height="88" filterUnits="userSpaceOnUse" color-interpolation-filters="sRGB"><feFlood flood-opacity="0" result="BackgroundImageFix"/><feGaussianBlur in="BackgroundImage" stdDeviation="10"/><feComposite in2="SourceAlpha" operator="in" result="effect1_backgroundBlur"/><feBlend in="SourceGraphic" in2="effect1_backgroundBlur" result="shape"/></filter></defs></svg>