<svg width="48" height="46" fill="none" xmlns="http://www.w3.org/2000/svg"><g filter="url(#filter0_b)"><path fill-rule="evenodd" clip-rule="evenodd" d="M22.177 2.038a1.823 1.823 0 113.646 0v7.58c3.175.813 5.529 3.698 5.529 7.123 0 3.425-2.354 6.31-5.53 7.123v20.098a1.823 1.823 0 11-3.645 0V23.864c-3.175-.812-5.529-3.698-5.529-7.123 0-3.425 2.354-6.31 5.53-7.123v-7.58zM24 20.448a3.71 3.71 0 01-3.706-3.707A3.71 3.71 0 0124 13.035a3.71 3.71 0 013.706 3.706A3.71 3.71 0 0124 20.448zm18.47-18.41v20.097c3.176.813 5.53 3.698 5.53 7.123 0 3.425-2.354 6.31-5.53 7.123v7.58a1.822 1.822 0 11-3.645 0v-7.58c-3.174-.813-5.529-3.698-5.529-7.123 0-3.425 2.355-6.31 5.53-7.123V2.038a1.823 1.823 0 113.645 0zm-1.783 30.927a3.71 3.71 0 003.668-3.707 3.71 3.71 0 00-3.707-3.706 3.71 3.71 0 00-3.707 3.706 3.711 3.711 0 003.746 3.707zM9.175 22.135V2.038a1.823 1.823 0 10-3.646 0v20.097C2.354 22.948 0 25.833 0 29.258c0 3.425 2.354 6.31 5.529 7.123v7.58a1.823 1.823 0 103.646 0v-7.58c3.175-.813 5.529-3.698 5.529-7.123 0-3.425-2.354-6.31-5.53-7.123zm1.883 7.123a3.71 3.71 0 01-3.745 3.707 3.71 3.71 0 01-3.667-3.707 3.71 3.71 0 013.706-3.706 3.71 3.71 0 013.706 3.706z" fill="url(#paint0_linear)"/></g><defs><linearGradient id="paint0_linear" x1="0" y1=".215" x2="56.712" y2="28.004" gradientUnits="userSpaceOnUse"><stop stop-color="#299EF3" stop-opacity=".7"/><stop offset=".474" stop-color="#4D7CF5" stop-opacity=".69"/><stop offset="1" stop-color="#8B1EF8" stop-opacity=".3"/></linearGradient><filter id="filter0_b" x="-20" y="-19.785" width="88" height="85.57" filterUnits="userSpaceOnUse" color-interpolation-filters="sRGB"><feFlood flood-opacity="0" result="BackgroundImageFix"/><feGaussianBlur in="BackgroundImage" stdDeviation="10"/><feComposite in2="SourceAlpha" operator="in" result="effect1_backgroundBlur"/><feBlend in="SourceGraphic" in2="effect1_backgroundBlur" result="shape"/></filter></defs></svg>