<svg width="48" height="34" fill="none" xmlns="http://www.w3.org/2000/svg"><g filter="url(#filter0_b)"><path fill-rule="evenodd" clip-rule="evenodd" d="M47.682 16.879l-2.82-3.633.002-.001-4.538-9.025a1.513 1.513 0 00-1.351-.833H32.52V1.874c0-.836-.677-1.513-1.513-1.513H5.798a1.512 1.512 0 100 3.025h23.698v10.589c0 .835.677 1.512 1.512 1.512h11.764l2.203 2.838v7.8h-2.85a6.061 6.061 0 00-5.873-4.587 6.061 6.061 0 00-5.872 4.588h-8.928a6.061 6.061 0 00-5.872-4.588 6.061 6.061 0 00-5.872 4.588h-3.91a1.512 1.512 0 100 3.025h3.936a6.061 6.061 0 005.846 4.488 6.061 6.061 0 005.846-4.488h8.98a6.061 6.061 0 005.846 4.488 6.06 6.06 0 005.846-4.488h4.39c.835 0 1.512-.677 1.512-1.512v-9.832c0-.336-.112-.663-.318-.928zm-9.64-10.467l3.042 6.05H32.52v-6.05h5.52zM15.58 30.613a3.028 3.028 0 01-3.025-3.025 3.028 3.028 0 013.025-3.025 3.029 3.029 0 013.025 3.025 3.028 3.028 0 01-3.025 3.025zm20.672 0a3.028 3.028 0 01-3.025-3.025 3.028 3.028 0 013.025-3.025 3.028 3.028 0 013.026 3.025 3.028 3.028 0 01-3.026 3.025zM3.983 18.463h6.958a1.512 1.512 0 110 3.024H3.983a1.512 1.512 0 110-3.025zm10.437-5.95H1.513a1.513 1.513 0 000 3.025H14.42a1.512 1.512 0 100-3.026zM3.983 6.562h12.908a1.512 1.512 0 110 3.025H3.983a1.512 1.512 0 110-3.025z" fill="url(#paint0_linear)"/></g><defs><linearGradient id="paint0_linear" x1="0" y1=".361" x2="48.495" y2="32.901" gradientUnits="userSpaceOnUse"><stop stop-color="#299EF3" stop-opacity=".7"/><stop offset=".474" stop-color="#4D7CF5" stop-opacity=".69"/><stop offset="1" stop-color="#8B1EF8" stop-opacity=".3"/></linearGradient><filter id="filter0_b" x="-20" y="-19.639" width="88" height="73.277" filterUnits="userSpaceOnUse" color-interpolation-filters="sRGB"><feFlood flood-opacity="0" result="BackgroundImageFix"/><feGaussianBlur in="BackgroundImage" stdDeviation="10"/><feComposite in2="SourceAlpha" operator="in" result="effect1_backgroundBlur"/><feBlend in="SourceGraphic" in2="effect1_backgroundBlur" result="shape"/></filter></defs></svg>