<svg width="48" height="46" fill="none" xmlns="http://www.w3.org/2000/svg"><g filter="url(#filter0_b)"><path fill-rule="evenodd" clip-rule="evenodd" d="M42.324.842H12.299c-3.02 0-5.477 2.435-5.477 5.416l-.19 26.65H1.495c-.825 0-1.494.669-1.494 1.494v3.635c0 3.826 3.033 6.957 6.822 7.114v.006h25.343v-.008a7.128 7.128 0 007.469-7.112V14.684h6.871c.825 0 1.494-.669 1.494-1.494V6.518A5.683 5.683 0 0042.324.842zM26.719 42.17a7.081 7.081 0 01-1.325-4.133v-2.141H2.988v2.14A4.138 4.138 0 007.12 42.17h19.6zm.169-9.262H9.62L9.81 6.27c0-1.345 1.116-2.44 2.489-2.44h25.026a5.642 5.642 0 00-.678 2.69v31.518a4.138 4.138 0 01-4.133 4.133 4.138 4.138 0 01-4.132-4.133v-3.635c0-.825-.669-1.494-1.494-1.494zm12.747-21.212V6.519a2.692 2.692 0 012.689-2.689 2.692 2.692 0 012.688 2.69v5.178h-5.377zM22.208 9.158H14.49a1.494 1.494 0 100 2.988h7.717a1.494 1.494 0 000-2.988zm-7.718 5.975h16.68a1.494 1.494 0 110 2.988H14.49a1.494 1.494 0 110-2.988zm16.68 5.975H14.49a1.494 1.494 0 100 2.988h16.68a1.493 1.493 0 100-2.988zm-16.68 5.976h16.68a1.494 1.494 0 110 2.987H14.49a1.494 1.494 0 110-2.988z" fill="url(#paint0_linear)"/></g><defs><linearGradient id="paint0_linear" x1="0" y1=".842" x2="56.089" y2="29.104" gradientUnits="userSpaceOnUse"><stop stop-color="#299EF3" stop-opacity=".7"/><stop offset=".474" stop-color="#4D7CF5" stop-opacity=".69"/><stop offset="1" stop-color="#8B1EF8" stop-opacity=".3"/></linearGradient><filter id="filter0_b" x="-20" y="-19.158" width="88" height="84.315" filterUnits="userSpaceOnUse" color-interpolation-filters="sRGB"><feFlood flood-opacity="0" result="BackgroundImageFix"/><feGaussianBlur in="BackgroundImage" stdDeviation="10"/><feComposite in2="SourceAlpha" operator="in" result="effect1_backgroundBlur"/><feBlend in="SourceGraphic" in2="effect1_backgroundBlur" result="shape"/></filter></defs></svg>