<svg width="32" height="32" fill="none" xmlns="http://www.w3.org/2000/svg"><path d="M27.805 6.862L21.138.195A.666.666 0 0020.667 0h-14A2.67 2.67 0 004 2.667v26.666A2.67 2.67 0 006.667 32h18.666A2.67 2.67 0 0028 29.333v-22a.666.666 0 00-.195-.471zm-6.472-4.586l4.39 4.39h-3.056a1.335 1.335 0 01-1.334-1.333V2.276zm5.334 27.057c0 .735-.598 1.334-1.334 1.334H6.667a1.335 1.335 0 01-1.334-1.334V2.667c0-.735.598-1.334 1.334-1.334H20v4A2.67 2.67 0 0022.667 8h4v21.333z" fill="#DD2064"/><path d="M23.333 18.667H14A.666.666 0 1014 20h9.333a.666.666 0 100-1.333zM8.667 8h8a.666.666 0 100-1.333h-8a.666.666 0 100 1.333zm14.666 6.667H8.667a.666.666 0 100 1.333h14.666a.666.666 0 100-1.333zM8 11.334c0 .368.298.666.667.666h14.666a.666.666 0 100-1.333H8.667a.666.666 0 00-.667.667zm9.533 12.857c-.98.965-2.217 2.052-2.706 2.383-.116-.262-.248-.701-.327-.968-.27-.897-.483-1.606-1.167-1.606-.584 0-.847.534-1.246 1.343-.195.396-.6 1.22-.747 1.323-.145-.015-.392-.183-.664-.437C11.41 25.28 12 24.182 12 23.333c0-1.457-1.227-2-2-2-.786 0-2 1.145-2 2.667 0 .674.374 1.508.904 2.239-.211.21-.426.402-.637.56a.667.667 0 00.8 1.067c.23-.172.477-.39.726-.636.522.464 1.077.77 1.54.77.901 0 1.437-1.026 1.901-1.97.308 1.02.605 1.97 1.433 1.97.222 0 .898 0 3.8-2.858a.666.666 0 10-.934-.95zm-7.736.991c-.27-.413-.464-.841-.464-1.182 0-.813.597-1.29.667-1.334.11 0 .667.032.667.667 0 .425-.36 1.143-.87 1.849z" fill="#DD2064"/></svg>