<svg width="32" height="32" fill="none" xmlns="http://www.w3.org/2000/svg"><g clip-path="url(#clip0)" fill="#DD2064"><path d="M31.66 13.004L16.49 1.898a.831.831 0 00-.982 0L.34 13.004a.831.831 0 10.983 1.342L16 3.599l14.677 10.747a.83.83 0 10.982-1.342z"/><path d="M27.64 14.534a.831.831 0 00-.831.832V28.6h-6.651v-7.224A4.162 4.162 0 0016 17.218a4.162 4.162 0 00-4.157 4.158V28.6H5.19V15.366a.832.832 0 00-1.663 0v14.066c0 .459.373.83.832.83h8.314a.831.831 0 00.832-.83v-8.056A2.497 2.497 0 0116 18.88a2.498 2.498 0 012.495 2.495v8.055a.831.831 0 00.831.831h8.314a.83.83 0 00.832-.83V15.365a.831.831 0 00-.832-.832z"/></g><defs><clipPath id="clip0"><path fill="#fff" d="M0 0h32v32H0z"/></clipPath></defs></svg>